ply
format ascii 1.0
comment Exported by Aspose.3D 23.2
element vertex 8
property float x
property float y
property float z
property float nx
property float ny
property float nz
element face 12
property list uchar int vertex_index
end_header
0 14 -18 0.5 0.25 0.25
0 0 -18 0.2 -0.4 0.4
0 0 -20 0.5 -0.25 -0.25
0 14 -20 0.2 0.4 -0.4
-24 14 -20 -0.5 0.25 -0.25
-24 0 -20 -0.2 -0.4 -0.4
-24 0 -18 -0.5 -0.25 0.25
-24 14 -18 -0.2 0.4 0.4
3 0 1 2
3 0 2 3
3 4 5 6
3 4 6 7
3 7 6 1
3 7 1 0
3 5 2 1
3 5 1 6
3 3 2 5
3 3 5 4
3 7 0 3
3 7 3 4
